<svg xmlns="http://www.w3.org/2000/svg" enable-background="new 0 0 1080 1080" viewBox="0 0 1080 1080" id="man-uploading-data"><rect width="1080" height="1080" fill="none"></rect><path fill="#d2e2f9" d="M669.5 481.45v-3c3.94 0 7.92-.18 11.85-.52l.26 2.99C677.59 481.27 673.52 481.45 669.5 481.45zM657.39 480.93c-4.01-.35-8.05-.87-12.02-1.57l.52-2.96c3.88.68 7.84 1.19 11.76 1.53L657.39 480.93zM693.62 479.34l-.52-2.95c3.88-.68 7.78-1.55 11.58-2.56l.78 2.9C701.57 477.76 697.59 478.65 693.62 479.34zM633.53 476.76c-3.89-1.04-7.78-2.26-11.56-3.63l1.02-2.82c3.7 1.34 7.5 2.54 11.31 3.55L633.53 476.76zM717.02 473.08l-1.03-2.82c3.7-1.35 7.39-2.88 10.96-4.54l1.27 2.72C724.57 470.14 720.81 471.71 717.02 473.08zM610.77 468.51c-3.65-1.7-7.27-3.58-10.75-5.59l1.5-2.6c3.4 1.97 6.94 3.81 10.52 5.47L610.77 468.51zM738.97 462.84l-1.5-2.6c3.4-1.97 6.77-4.12 10-6.39l1.72 2.46C745.89 458.62 742.45 460.82 738.97 462.84zM589.8 456.4c-3.29-2.31-6.52-4.79-9.61-7.38l1.93-2.3c3.02 2.54 6.18 4.96 9.4 7.22L589.8 456.4zM758.8 448.91l-1.93-2.29c2.99-2.52 5.91-5.2 8.69-7.97l2.17 2.07-.02.02C764.84 443.59 761.85 446.33 758.8 448.91zM571.25 440.82l-.04-.04c-2.85-2.85-5.58-5.83-8.15-8.87l2.29-1.93c2.51 2.98 5.18 5.89 7.95 8.66l.08.08L571.25 440.82zM775.91 431.78l-2.3-1.93c2.53-3.02 4.96-6.18 7.22-9.4l2.46 1.72C780.98 425.46 778.5 428.69 775.91 431.78zM555.66 422.31c-2.32-3.29-4.51-6.73-6.53-10.22l2.6-1.5c1.98 3.41 4.12 6.77 6.39 9.99L555.66 422.31zM789.81 411.96l-2.6-1.5c1.97-3.41 3.81-6.95 5.47-10.52l2.72 1.27C793.7 404.85 791.82 408.47 789.81 411.96zM543.51 401.34c-1.7-3.65-3.27-7.41-4.64-11.2l2.82-1.03c1.35 3.7 2.88 7.39 4.54 10.96L543.51 401.34zM800.03 390.01l-2.82-1.02c1.34-3.7 2.54-7.5 3.55-11.31l2.9.77C802.62 382.34 801.4 386.23 800.03 390.01zM535.23 378.58c-1.04-3.89-1.92-7.87-2.62-11.83l2.96-.52c.68 3.88 1.55 7.78 2.56 11.58L535.23 378.58zM806.27 366.61l-2.96-.52c.68-3.87 1.2-7.83 1.54-11.76l2.99.26C807.49 358.61 806.97 362.65 806.27 366.61zM531.02 354.73c-.35-4-.53-8.08-.54-12.11h3c0 3.95.18 7.93.52 11.85L531.02 354.73zM805.36 342.48c0-3.95-.18-7.93-.52-11.85l2.99-.26c.35 4 .53 8.08.53 12.11L805.36 342.48zM533.99 330.77l-2.99-.26c.35-4.02.87-8.06 1.56-12.02l2.96.52C534.85 322.88 534.33 326.84 533.99 330.77zM803.31 318.87c-.68-3.88-1.54-7.78-2.56-11.58l2.9-.77c1.04 3.89 1.92 7.87 2.62 11.84L803.31 318.87zM538.07 307.43l-2.9-.77c1.04-3.89 2.26-7.79 3.63-11.56l2.82 1.02C540.28 299.81 539.09 303.62 538.07 307.43zM797.19 295.98c-1.35-3.7-2.87-7.39-4.54-10.96l2.72-1.27c1.7 3.65 3.26 7.42 4.64 11.2L797.19 295.98zM546.14 285.15l-2.72-1.27c1.7-3.65 3.58-7.27 5.59-10.75l2.6 1.5C549.64 278.05 547.8 281.58 546.14 285.15zM787.17 274.5c-1.97-3.41-4.12-6.77-6.38-10l2.46-1.72c2.32 3.3 4.51 6.74 6.53 10.22L787.17 274.5zM557.98 264.64l-2.46-1.72c2.3-3.29 4.79-6.52 7.38-9.61l2.3 1.93C562.66 258.26 560.23 261.42 557.98 264.64zM773.55 255.1c-2.52-3-5.21-5.93-8-8.71l2.07-2.18.09.09c2.81 2.81 5.56 5.81 8.14 8.87L773.55 255.1zM573.2 246.49l-2.12-2.12.09-.09c2.86-2.86 5.87-5.62 8.94-8.2l1.93 2.3c-3.01 2.53-5.95 5.23-8.74 8.02L573.2 246.49zM756.78 238.35c-3.02-2.54-6.18-4.97-9.4-7.22l1.72-2.46c3.29 2.31 6.52 4.79 9.6 7.38L756.78 238.35zM591.45 231.14l-1.72-2.46c3.3-2.31 6.74-4.51 10.22-6.52l1.5 2.6C598.04 226.73 594.67 228.88 591.45 231.14zM737.4 224.75c-3.4-1.97-6.94-3.81-10.51-5.48l1.27-2.72c3.65 1.7 7.27 3.59 10.75 5.6L737.4 224.75zM611.96 219.28l-1.27-2.72c3.65-1.7 7.42-3.26 11.2-4.64l1.02 2.82C619.22 216.09 615.53 217.61 611.96 219.28zM715.93 214.74c-3.7-1.34-7.5-2.54-11.31-3.56l.77-2.9c3.89 1.04 7.78 2.26 11.56 3.63L715.93 214.74zM634.24 211.19l-.77-2.9c3.89-1.04 7.87-1.92 11.84-2.61l.52 2.96C641.94 209.31 638.04 210.17 634.24 211.19zM693.04 208.63c-3.88-.68-7.84-1.2-11.76-1.54l.26-2.99c4.01.35 8.05.88 12.02 1.57L693.04 208.63zM657.58 207.09l-.26-2.99c4-.35 8.07-.53 12.09-.53.88 0 1.52.67 1.52 1.5s-.67 1.5-1.5 1.5l0 0c0 0-.01 0-.02 0C665.48 206.58 661.5 206.75 657.58 207.09zM838.86 673.72c-1.13 0-2.25-.01-3.35-.04l.08-3c3.77.1 7.71.02 11.75-.23l.19 2.99C844.57 673.63 841.66 673.72 838.86 673.72zM823.5 672.72c-4.17-.58-8.15-1.41-11.83-2.47l.83-2.88c3.54 1.02 7.38 1.82 11.41 2.38L823.5 672.72zM859.44 672.25l-.41-2.97c3.79-.52 7.7-1.18 11.62-1.98l.6 2.94C867.27 671.05 863.3 671.73 859.44 672.25zM882.91 667.53l-.76-2.9c3.75-.98 7.56-2.09 11.33-3.29l.91 2.86C890.57 665.41 886.7 666.54 882.91 667.53zM800.35 665.8c-3.8-1.98-7.19-4.33-10.05-6.99l2.04-2.2c2.67 2.48 5.83 4.68 9.39 6.53L800.35 665.8zM905.69 660.29l-1.05-2.81c3.63-1.36 7.33-2.83 10.97-4.38l1.18 2.76C913.1 657.42 909.37 658.92 905.69 660.29zM927.68 650.93l-1.3-2.71c3.51-1.68 7.04-3.47 10.5-5.31l.75 1.3.7 1.33-.05.03C934.79 647.42 931.22 649.23 927.68 650.93zM782.75 649.06l1.33-.69-1.35.66c-1.92-3.61-3.23-7.51-3.9-11.64l2.96-.48c.62 3.8 1.81 7.39 3.56 10.67l.05.09L782.75 649.06zM948.76 639.7l-1.52-2.59c3.4-2 6.78-4.09 10.05-6.22l1.63 2.52C955.61 635.56 952.2 637.68 948.76 639.7zM968.79 626.68l-1.75-2.44c3.22-2.31 6.39-4.7 9.43-7.11l1.86 2.35C975.26 621.92 972.05 624.34 968.79 626.68zM781.58 625.48l-2.98-.33c.42-3.81 1.29-7.81 2.58-11.88l2.86.91C782.81 618.06 781.98 621.86 781.58 625.48zM987.52 611.81l-1.98-2.25c2.98-2.63 5.89-5.33 8.63-8.04l2.11 2.13C993.49 606.4 990.55 609.15 987.52 611.81zM788.42 603.38l-2.7-1.31c1.68-3.46 3.67-6.99 5.89-10.5l2.54 1.61C791.98 596.59 790.05 600.03 788.42 603.38zM1004.53 594.97l-2.24-2c2.67-3 5.19-6.05 7.51-9.07l2.38 1.82C1009.82 588.81 1007.25 591.92 1004.53 594.97zM800.88 583.54l-2.38-1.82c2.36-3.08 4.93-6.19 7.64-9.24l2.24 1.99C805.71 577.47 803.19 580.53 800.88 583.54zM1019.07 575.89l-2.53-1.61c2.17-3.42 4.1-6.85 5.74-10.21l2.7 1.32C1023.28 568.85 1021.29 572.38 1019.07 575.89zM816.5 565.93l-2.11-2.13c2.78-2.74 5.72-5.49 8.75-8.16l1.98 2.25C822.14 560.52 819.24 563.23 816.5 565.93zM1029.5 554.19l-2.86-.91c1.24-3.87 2.07-7.67 2.47-11.29l2.98.33C1031.68 546.14 1030.8 550.13 1029.5 554.19zM834.19 550.32l-1.86-2.35c3.08-2.44 6.29-4.86 9.55-7.2l1.75 2.44C840.4 545.51 837.23 547.91 834.19 550.32zM853.38 536.54l-1.63-2.52c3.31-2.15 6.73-4.27 10.16-6.29l1.52 2.58C860.03 532.32 856.65 534.42 853.38 536.54zM1028.92 530.55c-.62-3.82-1.82-7.43-3.57-10.72l2.64-1.43.01.03c1.91 3.58 3.21 7.5 3.88 11.65L1028.92 530.55zM873.83 524.49l-1.52-2.59.13-.07c3.49-1.86 7.08-3.67 10.64-5.38l1.29 2.71C880.85 520.85 877.31 522.65 873.83 524.49zM895.15 514.29l-1.18-2.76c3.68-1.57 7.41-3.06 11.1-4.43l1.05 2.81C902.48 511.27 898.79 512.75 895.15 514.29zM1018.41 510.84c-2.66-2.48-5.82-4.68-9.39-6.54l1.39-2.66c3.8 1.98 7.18 4.34 10.04 7.01L1018.41 510.84zM917.28 506.06l-.91-2.86c3.83-1.22 7.7-2.34 11.49-3.34l.76 2.9C924.88 503.74 921.07 504.85 917.28 506.06zM940.11 500.09l-.59-2.94c3.98-.8 7.96-1.48 11.81-2l.4 2.97C947.94 498.64 944.03 499.3 940.11 500.09zM998.26 500.06c-3.54-1.03-7.38-1.83-11.41-2.39l.41-2.97c4.17.58 8.15 1.41 11.83 2.48L998.26 500.06zM963.44 496.95l-.19-2.99c2.91-.18 5.79-.27 8.58-.27 1.19.02 2.3.02 3.43.05l-.08 3c-1.11-.03-2.2-.09-3.35-.04C969.11 496.69 966.29 496.78 963.44 496.95zM160.08 878.55c-1.53.01-3.01-.02-4.5-.07l.09-3c1.46.04 2.94.08 4.41.07 2.48 0 5.02-.07 7.54-.2l.16 3C165.2 878.48 162.61 878.55 160.08 878.55zM143.41 877.58c-4.07-.48-8.13-1.16-12.05-2l.63-2.93c3.83.83 7.79 1.48 11.77 1.96L143.41 877.58zM179.92 877.23l-.39-2.97c3.9-.51 7.87-1.19 11.79-2.02l.62 2.94C187.95 876.01 183.9 876.7 179.92 877.23zM119.56 872.41c-3.92-1.27-7.76-2.74-11.42-4.39l1.23-2.74c3.56 1.6 7.3 3.03 11.12 4.27L119.56 872.41zM203.77 872.23l-.83-2.88c3.8-1.09 7.63-2.35 11.38-3.72l1.03 2.82C211.53 869.84 207.64 871.12 203.77 872.23zM226.63 863.84l-1.23-2.74c3.61-1.62 7.22-3.38 10.73-5.26l1.43 2.64-.06.03C233.97 860.4 230.3 862.2 226.63 863.84zM97.27 862.37c-3.54-2.12-6.94-4.46-10.1-6.94l1.85-2.36c3.07 2.41 6.36 4.67 9.79 6.73L97.27 862.37zM248.12 852.4l-1.59-2.55c3.38-2.11 6.72-4.35 9.93-6.68l1.76 2.43C254.96 847.97 251.56 850.26 248.12 852.4zM78.05 847.22c-2.85-2.94-5.51-6.09-7.91-9.38l2.42-1.77c2.31 3.17 4.88 6.22 7.64 9.06L78.05 847.22zM267.83 838.12l-1.93-2.3c3.06-2.56 6.04-5.26 8.88-8.02l2.09 2.15C273.98 832.76 270.94 835.5 267.83 838.12zM63.67 827.53c-.02-.04-.04-.07-.06-.11-1.92-3.6-3.59-7.37-4.98-11.19l2.82-1.02c1.34 3.69 2.96 7.33 4.81 10.8.01.02.02.04.03.06l-1.36.68L63.67 827.53zM64.92 826.75L64.92 826.75l.02-.01L64.92 826.75zM285.28 821.13l-2.25-1.99c2.65-3 5.19-6.11 7.56-9.26l2.4 1.8C290.58 814.9 287.98 818.07 285.28 821.13zM55.25 804.42c-.84-3.96-1.42-8.04-1.72-12.15l2.99-.22c.3 3.97.86 7.92 1.67 11.75L55.25 804.42zM299.91 801.64l-2.54-1.6c2.13-3.39 4.12-6.88 5.91-10.37l2.67 1.37C304.12 794.61 302.09 798.17 299.91 801.64zM56.4 780.18l-3-.16c.21-4.01.67-8.11 1.37-12.17l2.96.51C57.06 772.31 56.61 776.28 56.4 780.18zM311.02 779.92l-2.79-1.11c1.49-3.72 2.79-7.52 3.87-11.28l2.88.83C313.87 772.22 312.54 776.11 311.02 779.92zM60.4 756.76l-2.88-.83c1.1-3.85 2.44-7.74 3.96-11.56l2.79 1.11C62.77 749.21 61.47 753 60.4 756.76zM317.72 756.44l-2.96-.51c.68-3.95 1.13-7.92 1.33-11.82l3 .16C318.88 748.28 318.42 752.38 317.72 756.44zM69.2 734.62l-2.67-1.37c1.83-3.57 3.86-7.14 6.04-10.6l2.54 1.6C72.98 727.64 70.99 731.13 69.2 734.62zM315.98 732.24c-.29-3.97-.85-7.92-1.66-11.75l2.94-.62c.84 3.96 1.41 8.05 1.72 12.15L315.98 732.24zM81.89 714.41l-2.4-1.8c2.42-3.22 5.01-6.4 7.71-9.45l2.25 1.99C86.81 708.14 84.26 711.25 81.89 714.41zM311.07 709.09c-1.34-3.7-2.96-7.35-4.82-10.83l2.65-1.41c1.92 3.61 3.6 7.38 4.99 11.22L311.07 709.09zM97.7 696.49l-2.09-2.15c2.88-2.81 5.93-5.55 9.04-8.17l1.93 2.3C103.52 691.04 100.53 693.73 97.7 696.49zM299.95 688.21c-2.31-3.17-4.88-6.22-7.64-9.06l2.15-2.09c2.85 2.94 5.51 6.1 7.91 9.38L299.95 688.21zM116.02 681.11l-1.76-2.43c3.26-2.36 6.66-4.65 10.11-6.8l1.59 2.54C122.56 676.54 119.22 678.79 116.02 681.11zM283.5 671.21c-3.06-2.41-6.36-4.68-9.79-6.73l1.54-2.57c3.54 2.12 6.94 4.46 10.1 6.95L283.5 671.21zM136.28 668.46l-.72-1.43-.72-1.19c.04-.02.07-.04.11-.06 3.58-1.9 7.26-3.71 10.94-5.36l1.23 2.74c-3.62 1.62-7.24 3.39-10.76 5.27C136.33 668.43 136.3 668.45 136.28 668.46zM135.56 667.03l.05.09L135.56 667.03zM263.16 658.99c-3.56-1.6-7.3-3.04-11.11-4.27l.92-2.85c3.91 1.27 7.76 2.74 11.42 4.39L263.16 658.99zM158.21 658.64l-1.03-2.82c3.81-1.4 7.71-2.67 11.58-3.79l.83 2.88C165.79 656.01 161.96 657.26 158.21 658.64zM181.2 652.03l-.62-2.94c3.99-.84 8.03-1.53 12.02-2.05l.39 2.97C189.09 650.53 185.12 651.21 181.2 652.03zM240.53 651.63c-3.83-.83-7.79-1.49-11.77-1.96l.36-2.98c4.07.49 8.12 1.16 12.05 2.01L240.53 651.63zM204.91 648.92l-.16-3c4.08-.21 8.23-.26 12.2-.13l-.09 3C212.97 648.66 208.91 648.71 204.91 648.92z"></path><path fill="#eaf3fa" d="M205.97,903.21h591.99c0,0-7.57-91.91,73.26-200.03c80.82-108.13,105.33-264.47,91.64-324.09
			c-13.15-57.27-66.99-65.76-107.94-35.68c-21.46,15.76-51.05,43.91-129.69-41.44S599.2,40.24,410.07,109.84
			c-170.36,62.7-56.74,165.13-137.86,316.98c-49.64,92.91-189.22,104.71-218.95,185.8C23.51,693.71,123.52,785.62,205.97,903.21z"></path><path fill="#ffd2c0" d="M355.59,504.07c1.09-6.39-1.93-22-3.53-32.01c-1.25-7.78,29.86-13.97,32.55,2.17
			c0.41,2.45-1.63,13.52-2.44,18.89s-0.89,10.19-0.89,10.19L355.59,504.07z"></path><path fill="#fa9746" d="M206.98,574.27c0,0,76.25-2.26,103.7-3.78c34.46-1.9,43.49-34.82,41.32-69.61l32.07-2.31
			c0,0,31.53,116.97-44.58,120.28c-84.2,3.66-84.48,23.57-84.48,23.57"></path><path fill="#ccc" d="M248.14,593.71c0,0,16.01,10.25,25.47,34.93c0,0-8.26,2.47-14.42,7.42
			C257.33,637.56,248.14,593.71,248.14,593.71z"></path><path fill="#fa9746" d="M251.76,601.14c8.98,25.13,22.34,66.38,42.48,140.29c7.33,26.91,11,46.48,11,46.48H135.63
			c-18.75,3.27-17.02-159.62,17.4-191.9C180.13,570.6,237.18,560.36,251.76,601.14z"></path><path fill="#ccc" d="M184.96,696.59c-4.78-12.66-4.35-28.27,1.29-46.82c-10.97,8.43-18.17,19.93-20.46,35.41L184.96,696.59z"></path><path fill="#d2e2f9" d="M743.24,611.63c-21.95,0-42.87,4.37-61.96,12.27c-35.66-67.53-106.59-113.57-188.27-113.57
			c-98.8,0-181.86,67.34-205.82,158.62c-13.35-4.35-27.6-6.71-42.41-6.71c-75.57,0-136.83,61.26-136.83,136.83
			S169.21,935.9,244.78,935.9h498.46c89.55,0,162.14-72.59,162.14-162.14S832.79,611.63,743.24,611.63z"></path><path fill="#eac1b2" d="M301.53,800.6c0,0,10.56-7.41,12.56-9.17c2-1.75,8.92-5.04,11.89-6.35s5.7,0.58,3.66,3.73
			c-2.04,3.15-7.56,6.19-7.24,9.55L301.53,800.6z"></path><path fill="#274c92" d="M446.26,748.36l-126.62,16.4c-2.14,0.28-3.65,2.23-3.37,4.37l11.9,91.91c0.28,2.14,2.23,3.65,4.37,3.37
				l126.62-16.39c2.14-0.28,3.65-2.23,3.37-4.37l-11.9-91.91C450.36,749.6,448.4,748.09,446.26,748.36z"></path><polygon fill="#274c92" points="325.73 766.43 330.88 756.92 374.86 751.23 383.26 758.98"></polygon><path fill="#5159bb" d="M444.63,756.29L317.14,772.8c-2.14,0.28-3.65,2.23-3.37,4.37l11.24,86.78c0.28,2.14,2.23,3.65,4.37,3.37
				l127.49-16.51c2.14-0.28,3.65-2.23,3.37-4.37L449,759.66C448.72,757.52,446.76,756.01,444.63,756.29z"></path><path fill="#274c92" d="M468.16,396.93l-126.48-17.44c-2.14-0.29-4.11,1.2-4.4,3.33l-12.66,91.81c-0.29,2.14,1.2,4.11,3.33,4.4
				l126.48,17.44c2.14,0.29,4.11-1.2,4.4-3.33l12.66-91.81C471.78,399.19,470.29,397.22,468.16,396.93z"></path><polygon fill="#274c92" points="347.11 382.7 354.58 374.88 398.51 380.93 404.58 390.63"></polygon><path fill="#5159bb" d="M464.5,404.15l-127.35-17.56c-2.14-0.29-4.11,1.2-4.4,3.33l-11.96,86.69c-0.29,2.14,1.2,4.11,3.33,4.4
				l127.35,17.56c2.14,0.29,4.11-1.2,4.4-3.33l11.96-86.69C468.13,406.41,466.63,404.44,464.5,404.15z"></path><path fill="#274c92" d="M663.55,372.99H535.88c-2.16,0-3.9,1.75-3.9,3.9v92.68c0,2.16,1.75,3.9,3.9,3.9h127.67
				c2.16,0,3.9-1.75,3.9-3.9v-92.68C667.45,374.74,665.7,372.99,663.55,372.99z"></path><polygon fill="#274c92" points="541.69 375.43 548.02 366.66 592.37 366.66 599.71 375.43"></polygon><path fill="#5159bb" d="M660.91,380.64H532.36c-2.16,0-3.9,1.75-3.9,3.9v87.51c0,2.16,1.75,3.9,3.9,3.9h128.55
				c2.16,0,3.9-1.75,3.9-3.9v-87.51C664.81,382.39,663.07,380.64,660.91,380.64z"></path><polygon fill="#d2e2f9" points="305.24 866.74 506.66 800.96 495.51 895.01 305.24 889.03"></polygon><line x1="305.24" x2="487.04" y1="866.74" y2="807.37" fill="none" stroke="#223762" stroke-linecap="round" stroke-linejoin="round" stroke-miterlimit="10" stroke-width="3"></line><path fill="#ffd2c0" d="M289.01,806.07c0,0,22.27-11.79,32.27-11.5c3.84,0.11,9.17,2.43,10.07,6.89c2.42,12-2.6,30.74-7.31,31.51
			c-6.57,1.07-35.79-0.04-35.79-0.04L289.01,806.07z"></path><path fill="#fa9746" d="M191.62,576.17c0,0-101.17,12.04-94.05,146.95c4.92,93.09,83.17,122.96,194.83,113.18v-37.51
			c0,0-86.65-1.63-113.29-45.12c-23.35-38.11-6.8-93.78,11.14-107.64"></path><path fill="#ffd2c0" d="M322.12,794.7c0,0,22.43-1.5,26.81-1.1s4.37,8.47-0.24,8.34c-5.5-0.16-21.68,2.81-25.28,4.38L322.12,794.7z"></path><ellipse cx="207" cy="583.02" fill="#ffd2c0" rx="16.72" ry="8.7" transform="rotate(-2.596 206.992 583)"></ellipse><path fill="#ffd2c0" d="M223.32 580.62c0 0-5.15-8.72-5.74-25.31-.61-17.33-.41-31.8-.41-31.8H186.8c0 0 4.61 16.31 5.1 34.86.41 15.39-1.61 25.36-1.61 25.36L223.32 580.62zM356.61 494.77c0 0-6.35-5.71-6.35-14.68s.04-14.29 2.88-14.78c5.3-.92 5.58 4.02 6.42 12.03.88 8.34 4.59 10.6 4.59 10.6"></path><path fill="#d2e2f9" d="M730.5,986.07H243.59c-6.28,0-11.37-5.09-11.37-11.37v-1.73c0-6.28,5.09-11.37,11.37-11.37H730.5
			c6.28,0,11.37,5.09,11.37,11.37v1.73C741.87,980.98,736.78,986.07,730.5,986.07z"></path><path fill="#edaf88" d="M429.24,986.07H243.59c-6.28,0-11.37-5.09-11.37-11.37v-1.73c0-6.28,5.09-11.37,11.37-11.37h185.65
			c6.28,0,11.37,5.09,11.37,11.37v1.73C440.61,980.98,435.52,986.07,429.24,986.07z"></path><path fill="#fff" d="M252.78 982.12c-1.32 0-2.32-.37-3.02-1.11s-1.04-1.78-1.04-3.11v-.58h2.32c0 .36.01.67.03.93s.07.52.14.78c.07.27.16.48.29.64.12.16.29.29.51.39.22.1.48.15.78.15s.56-.05.78-.15c.22-.1.39-.23.51-.39.12-.16.22-.37.29-.64s.11-.53.14-.78c.02-.26.03-.57.03-.93 0-.93-.18-1.65-.54-2.15s-.95-.75-1.78-.75v-2.32c.85 0 1.44-.17 1.8-.52.35-.35.53-.95.53-1.8 0-.77-.13-1.35-.38-1.74s-.71-.58-1.36-.58c-.3 0-.56.05-.78.15-.22.1-.39.23-.51.39-.12.16-.22.37-.29.64s-.11.53-.14.78c-.02.26-.03.57-.03.93h-2.32v-.58c0-1.33.35-2.37 1.05-3.11s1.7-1.11 3.01-1.11c1.32 0 2.32.37 3.02 1.11s1.04 1.78 1.04 3.11c0 .92-.21 1.67-.62 2.26s-.98 1-1.7 1.22c.76.25 1.33.73 1.73 1.42.4.7.59 1.57.59 2.64 0 1.52-.33 2.71-.98 3.55C255.21 981.7 254.18 982.12 252.78 982.12zM262.17 982.12c-1.44 0-2.48-.41-3.09-1.22-.62-.81-.92-2.01-.92-3.59h2.32v.36c0 .31.01.58.03.8.02.23.06.46.13.7.06.24.15.43.26.58s.26.27.46.37c.19.1.42.14.69.14.21 0 .4-.03.58-.08.17-.05.32-.11.44-.19s.23-.19.33-.33c.1-.14.18-.28.24-.4s.12-.29.16-.51c.04-.22.07-.4.1-.55.02-.15.04-.36.05-.63s.02-.48.02-.63 0-.37 0-.67c0-.13 0-.23 0-.3 0-.26 0-.48-.01-.67-.01-.18-.02-.38-.05-.6-.03-.21-.06-.39-.11-.54-.05-.14-.11-.29-.2-.44-.08-.14-.19-.26-.31-.34s-.27-.15-.45-.2-.38-.08-.6-.08c-.41 0-.77.13-1.07.4s-.52.58-.66.94h-1.98v-8.76h7.18V968h-5.08l-.14 3.93c.65-.39 1.43-.58 2.32-.58.53 0 .99.08 1.39.24s.73.38.99.66c.26.28.47.62.64 1.03.17.41.28.85.35 1.31s.1.97.1 1.53c0 .7-.04 1.32-.11 1.89s-.2 1.1-.39 1.62-.43.95-.73 1.31c-.3.35-.7.63-1.18.84C263.37 982.02 262.81 982.12 262.17 982.12zM272.37 976.71c-.43.23-.94.34-1.51.34s-1.08-.12-1.51-.35-.78-.55-1.04-.97c-.26-.41-.45-.88-.58-1.41-.13-.53-.19-1.1-.19-1.73 0-.64.06-1.22.18-1.74s.31-.98.57-1.38.6-.71 1.04-.93.95-.33 1.53-.33c.47 0 .89.07 1.27.22.37.15.69.35.94.61s.47.57.63.94c.17.37.29.77.37 1.2s.11.9.11 1.41c0 .63-.06 1.21-.19 1.74-.13.53-.32 1-.58 1.41C273.15 976.16 272.81 976.48 272.37 976.71zM270.86 975.29c.81 0 1.21-.9 1.21-2.69 0-1.75-.41-2.62-1.21-2.62s-1.21.87-1.21 2.62c0 .31.01.61.04.88.03.28.08.56.16.85.08.29.2.53.37.7C270.41 975.21 270.62 975.29 270.86 975.29zM273.65 981.96l2.57-13.76h1.99l-2.56 13.76H273.65zM282.44 981.61c-.44.23-.94.34-1.51.34s-1.08-.12-1.51-.35-.78-.56-1.04-.97-.45-.88-.58-1.41c-.13-.53-.19-1.1-.19-1.73 0-.64.06-1.22.19-1.74.12-.52.31-.98.57-1.38s.6-.71 1.03-.93.94-.33 1.53-.33 1.1.11 1.53.33c.44.22.78.53 1.04.93.26.4.45.86.57 1.38s.19 1.1.19 1.74-.06 1.22-.19 1.74c-.13.53-.32 1-.58 1.41C283.22 981.06 282.88 981.38 282.44 981.61zM280.93 980.19c.81 0 1.21-.9 1.21-2.69 0-1.74-.41-2.61-1.21-2.61s-1.21.87-1.21 2.61c0 .31.02.61.04.88.03.27.08.56.16.85.08.3.2.53.37.7C280.47 980.1 280.68 980.19 280.93 980.19z"></path><path fill="#afc3fe" d="M821.28,475.96h-82.32c-7.55,0-13.67-6.12-13.67-13.67v-67.98c0-7.55,6.12-13.67,13.67-13.67h82.32
			c7.55,0,13.67,6.12,13.67,13.67v67.98C834.95,469.84,828.83,475.96,821.28,475.96z"></path><g><polygon fill="#5159bb" points="743.17 457.07 817.08 457.07 799.97 426.85 790.14 438.03 768.65 399.54"></polygon><circle cx="800.7" cy="409.73" r="8.37" fill="#5159bb"></circle></g><path fill="#e6e6e6" d="M217.45,551.15c0,0-9.79,4.64-17.53,14.42c-6.95,8.77-9.33,16.27-9.33,16.27s2.65-11.18,0.52-36.93
			L217.45,551.15z"></path><g><path fill="#333" d="M155.78,419.33c0,0-22.16-0.78-27.87,18.65c-12.37,42.11,4.66,74.77,4.66,74.77s4.34-1.04,4.03-4.14
				C134.07,483.15,146.94,443.12,155.78,419.33z"></path><polygon fill="#333" points="153.66 541.81 160.13 548.2 169.97 549.41 155.78 537.24"></polygon><circle cx="201.26" cy="488.64" r="70.14" fill="#ffd2c0"></circle><path fill="#e6e6e6" d="M248.92,517.13c-10.98,10.82-34.02,10.09-47.99,6.32c4.14-0.16,8.24-0.1,12.36-0.13
					c2.83-0.05,7.9-0.24,10.67-0.4C232.46,522.15,241.33,521.32,248.92,517.13L248.92,517.13z"></path><ellipse cx="211.66" cy="480.09" fill="#333" rx="5.01" ry="7.35"></ellipse><ellipse cx="250.43" cy="478.2" fill="#333" rx="4.41" ry="6.47"></ellipse><path fill="#e6e6e6" d="M229.46,472.74c1.48,4.07,4.45,7.07,7.43,9.99c3.48,3.77,14.67,11.27,13.27,16.87
					c-0.45,2-2.36,2.98-3.9,4.01c-1.8,1.19-3.67,2.28-5.58,3.29c-1.94,0.95-3.91,1.94-6.05,2.35c1.88-1.03,3.57-2.32,5.26-3.6
					c2.09-1.59,4.19-3.27,6.21-4.95c0.88-0.65,1.73-1.45,1.3-2.63c-1.56-3.57-5.11-6.17-7.79-9.02
					C235.24,484.51,229.97,479.39,229.46,472.74L229.46,472.74z"></path><path fill="#333" d="M155.83,519.67l7.6-0.95c0,0-8.11-30.9,1.04-47.65c7.4-13.55,26.91-28.24,45.97-22.27
				c8.25,2.58,17.08,1.95,25.03-1.46c5.78-2.49,13.31-3.57,21.81,0.43c0,0-0.45-11.24-0.96-22.96c-0.36-8.24,5.51-34.74,5.51-34.74
				c-32.68-8.48-87.95-12.42-109.61,21.56c-35.97,6.24-34.83,31.32-33.21,53.95c0.63,8.8,2.96,21.22,8.86,37.93
				c5.82,16.48,8.88,18.59,9.93,20.44c1.55,2.73,20.33,22.8,20.33,22.8s-1.1-2.09-2.95-4.51c-6.51-8.52-21.47-27.38-20.36-31.61
				C136.24,505.17,148.15,502.93,155.83,519.67z"></path><path fill="#e6e6e6" d="M159.76,545.18l-5.15-3.8c0,0,0.8-1.55,4.08-7.77C158.68,533.61,159.76,535.77,159.76,545.18z"></path><path fill="#ffd2c0" d="M146.39,510.26c-3.63-2.46-11.53-2.36-14.8,0.05c-10.37,7.64,2.98,39.13,17.92,34.87
				c10.79-3.07,9.17-11.57,9.17-11.57"></path><path fill="#e6e6e6" d="M155.78 541.81c1.74-2.4 2.99-5.17 2.9-8.2C159.51 536.59 158.08 539.87 155.78 541.81L155.78 541.81zM151.93 515.88c-3.27-4.21-8.46-6.31-13.62-7.04-.75-.11-1.5-.18-2.26-.15C142 507.78 149.01 510.41 151.93 515.88L151.93 515.88zM149.69 521.2c-2.4-6.13-16.61-12.79-17.62-2.6-.11 4.71.83 9.83 3.98 13.5-3.4-3.54-4.54-8.73-4.44-13.53C132.57 507.8 147.45 514.42 149.69 521.2L149.69 521.2z"></path><path fill="#e6e6e6" d="M141.31,525.33c-2.38-3.83,2.66-7.97,6.26-5.69c1.11,0.64,1.91,1.63,2.54,2.68
					c-0.8-0.93-1.65-1.81-2.72-2.34C144.01,518.13,139.64,521.65,141.31,525.33L141.31,525.33z"></path><path fill="#e6e6e6" d="M151.93,538.32c0.92-1.37,1.5-3.1,1.08-4.67c-0.1-0.41-0.28-0.72-0.61-0.9c-1.54-0.63-3.38,0.17-4.95-0.58
					c-1.6-0.71-2.03-3.81-0.35-4.64c1.24-0.56,2.62-0.28,3.86,0.05l-0.27,0.19c0.05-1.51-0.11-3.06-0.46-4.55s-0.92-2.95-1.87-4.18
					c1.02,1.17,1.7,2.61,2.13,4.11c0.41,1.51,0.62,3.06,0.62,4.64c0,0.14-0.14,0.24-0.27,0.19c-1.3-0.32-3.61-0.79-4.2,0.76
					c-0.36,1.58,0.27,3.26,2.14,3.31c1.22,0.15,2.61-0.19,3.79,0.41C154.32,533.89,153.08,536.85,151.93,538.32L151.93,538.32z"></path><circle cx="220.88" cy="438.5" r="21.84" fill="#333"></circle><circle cx="189.87" cy="446.55" r="17.48" fill="#333"></circle><path fill="#333" d="M295.7,424.75c0.5-16.28-13.91-29.4-33.89-34.68c-3.1-0.82-6.25-1.23-9.33-1.31
				c-42.24-1.2-25.02,17.15-25.02,36s15.28,34.12,34.12,34.12S295.13,443.59,295.7,424.75z"></path></g><ellipse cx="176.01" cy="320.89" fill="#eaf3fa" rx="54.63" ry="84.19" transform="rotate(-60 176.007 320.892)"></ellipse></svg>